<svg xmlns="http://www.w3.org/2000/svg" viewBox="0 0 500 500"><g id="freepik--background-simple--inject-119"><path d="M385.22,324.5c10.72-35.81-31-158.62-77.88-210.13-60.77-66.8-147.48-78.46-193.2-13.59-42.47,60.27-10.72,148,57.57,197.28C232.53,342,374.41,368.71,385.22,324.5Z" style="fill:#90CAF9"></path><path d="M385.22,324.5c10.72-35.81-31-158.62-77.88-210.13-60.77-66.8-147.48-78.46-193.2-13.59-42.47,60.27-10.72,148,57.57,197.28C232.53,342,374.41,368.71,385.22,324.5Z" style="fill:#fff;opacity:0.9"></path></g><g id="freepik--Shadow--inject-119"><ellipse id="freepik--path--inject-119" cx="250" cy="416.24" rx="193.89" ry="11.32" style="fill:#f5f5f5"></ellipse></g><g id="freepik--Plant--inject-119"><path d="M331.42,274.53c1-9.88,4.69-54-12.2-56.58s6.75,56.1,6.75,56.1Z" style="fill:#90CAF9"></path><path d="M347.12,283.68a5.15,5.15,0,0,0-4.75-4.57c-3.44-.26-8.63-.56-14.28-.56s-10.83.3-14.28.56a5.16,5.16,0,0,0-4.75,4.57l-2.42,21.68a5.14,5.14,0,0,0,4,5.62,102,102,0,0,0,34.85,0,5.14,5.14,0,0,0,4-5.62Z" style="fill:#90CAF9"></path><path d="M342.5,280.63c0,.65-6.45,1.18-14.41,1.18s-14.41-.53-14.41-1.18,6.46-1.18,14.41-1.18S342.5,280,342.5,280.63Z" style="fill:#263238"></path><path d="M328.09,414.56a.87.87,0,0,1-.87-.87V302.48a.88.88,0,0,1,1.75,0V413.69A.87.87,0,0,1,328.09,414.56Z" style="fill:#263238"></path><path d="M366.79,414.56a.87.87,0,0,1-.86-.75L350,303a1.44,1.44,0,0,0-.56-.93,1.4,1.4,0,0,0-1.07-.24,139.07,139.07,0,0,1-40.47,0,1.4,1.4,0,0,0-1.07.24,1.44,1.44,0,0,0-.56.93l-16,110.77a.87.87,0,1,1-1.73-.25l16-110.77a3.13,3.13,0,0,1,3.65-2.64,136.83,136.83,0,0,0,39.87,0,3.13,3.13,0,0,1,3.65,2.64l16,110.77a.89.89,0,0,1-.74,1Z" style="fill:#263238"></path><path d="M324.79,280.63c1.93-19.26-3.76-74.35,11.85-76.28s-2.52,76.28-2.52,76.28Z" style="fill:#263238"></path><path d="M326.56,279.88c2.09-30.9-10.41-50.69-15.35-41s6.66,41.79,6.66,41.79Z" style="fill:#263238"></path><path d="M332.51,280.63c-.16-9.92,0-54.18,17.06-55.3S338,280.63,338,280.63Z" style="fill:#263238"></path></g><g id="freepik--Character--inject-119"><path d="M164.36,169.81c-1.32-.67-2.41-1.27-3.57-2s-2.27-1.36-3.38-2.07c-2.22-1.45-4.42-3-6.54-4.64a62.06,62.06,0,0,1-6.21-5.51A34.09,34.09,0,0,1,139,148.3l-.24-.43a5.43,5.43,0,0,1-.67-2.86,18.81,18.81,0,0,1,1-5.18A38.93,38.93,0,0,1,140.7,136a71.07,71.07,0,0,1,3.66-6.77c1.31-2.14,2.68-4.2,4.12-6.21s2.92-3.94,4.57-5.85a3.55,3.55,0,0,1,6,3.57l0,.09c-.82,2.18-1.73,4.39-2.59,6.57s-1.72,4.36-2.51,6.52-1.54,4.3-2.16,6.34a28.11,28.11,0,0,0-.72,2.92,6.43,6.43,0,0,0-.16,1.87l-.91-3.28a27.29,27.29,0,0,0,4,4.09c1.62,1.39,3.43,2.75,5.29,4.07s3.83,2.59,5.82,3.83l3,1.84,2.94,1.75.2.11a7.08,7.08,0,0,1-6.85,12.39Z" style="fill:#7f3e3b"></path><rect x="152.5" y="95.4" width="11.99" height="23.5" rx="1.53" transform="translate(-27.48 152.05) rotate(-47.64)" style="fill:#263238"></rect><path d="M163.71,95.42h-.2l0-1a3.87,3.87,0,0,0,3.68-1.78A2.36,2.36,0,0,0,167,90.1l.78-.56a3.3,3.3,0,0,1,.32,3.59A4.78,4.78,0,0,1,163.71,95.42Z" style="fill:#90CAF9"></path><path d="M174.53,95.09a3.19,3.19,0,0,1-1.54-.4,4.8,4.8,0,0,1-2.26-4.57l1,0a3.89,3.89,0,0,0,1.75,3.69,2.34,2.34,0,0,0,2.58-.24l.56.78A3.45,3.45,0,0,1,174.53,95.09Z" style="fill:#90CAF9"></path><path d="M172.8,102.68a3.33,3.33,0,0,1-.38-3.59A4.84,4.84,0,0,1,177,96.73l0,1a4,4,0,0,0-3.65,1.83,2.34,2.34,0,0,0,.29,2.58Z" style="fill:#90CAF9"></path><path d="M169.81,102.14l-1,0A3.88,3.88,0,0,0,167,98.46a2.36,2.36,0,0,0-2.58.28l-.57-.77a3.3,3.3,0,0,1,3.59-.36A4.82,4.82,0,0,1,169.81,102.14Z" style="fill:#90CAF9"></path><path d="M227.17,125.2a3.41,3.41,0,0,1-3-1.91,2.34,2.34,0,0,1,.47-2.49l.51.45a1.65,1.65,0,0,0-.35,1.79,2.72,2.72,0,0,0,2.45,1.49Z" style="fill:#263238"></path><path d="M219.71,124.23a2.44,2.44,0,0,1-1.61-.64l.45-.51a1.63,1.63,0,0,0,1.79.34,2.73,2.73,0,0,0,1.48-2.46l.67,0a3.38,3.38,0,0,1-1.89,3A2.23,2.23,0,0,1,219.71,124.23Z" style="fill:#263238"></path><path d="M220.18,129.64l-.5-.46a1.64,1.64,0,0,0,.38-1.78,2.73,2.73,0,0,0-2.43-1.53l.06-.67a3.39,3.39,0,0,1,3,2A2.33,2.33,0,0,1,220.18,129.64Z" style="fill:#263238"></path><path d="M223,129.52l-.67-.05a3.4,3.4,0,0,1,1.95-3,2.31,2.31,0,0,1,2.48.5l-.45.5a1.64,1.64,0,0,0-1.79-.37A2.74,2.74,0,0,0,223,129.52Z" style="fill:#263238"></path><path d="M152.84,117.73l.09-4.34a8.14,8.14,0,0,1,1.17-4l.78-1.3a3.12,3.12,0,0,1,3.71-1.31L162.1,108a3.1,3.1,0,0,1,1.87,3.94l-.55,1.57s-1.38,6.26-5.19,9.52l-1.29-.56A7,7,0,0,1,152.84,117.73Z" style="fill:#7f3e3b"></path><path d="M181.91,109.58c-2.19,5.64-15.08,3.13-13.12,10.57s-9.73,11.34-4.21,21.93c5.86,11.23,18.73,11.88,28.15,8.55s19,6.5,24.18-1.67c4.78-7.52-6.11-16.67-4.39-25.41s-1.46-15.82-8.13-14.69C195.24,101.93,184.08,104,181.91,109.58Z" style="fill:#263238"></path><path d="M173.91,411.25c6.41-2.11,16.18-3.82,14.68-14-.48-3.25,10-4.53,10-4.53-1.19,10.35.28,12.59,1.18,15.13,1.14,3.18,1.8,7.72-.82,7.72s-3.63-.52-6.88-.49c-3.79,0-9.66.49-17.18.49C170.75,415.53,171.85,411.93,173.91,411.25Z" style="fill:#263238"></path><path d="M185.83,401.32A5.19,5.19,0,0,1,184,401c-.95-.35-1.17-.84-1.18-1.19s.38-1,1.09-1.33a5.25,5.25,0,0,1,5.51.83.36.36,0,0,1,.12.26.37.37,0,0,1-.1.28A5.26,5.26,0,0,1,185.83,401.32Zm.16-2.54a4.29,4.29,0,0,0-1.77.36c-.46.22-.67.47-.66.61s.18.32.68.51a4.28,4.28,0,0,0,4.32-.68A4.34,4.34,0,0,0,186,398.78Z" style="fill:#263238"></path><path d="M185.34,404.25a1,1,0,0,1-.77-.29,1.54,1.54,0,0,1-.07-1.72,5.23,5.23,0,0,1,4.64-3.06h0a.38.38,0,0,1,.38.38,5.13,5.13,0,0,1-3.28,4.5A2.54,2.54,0,0,1,185.34,404.25Zm3.38-4.29a4.61,4.61,0,0,0-3.53,2.57c-.19.47-.18.8-.08.9s.35.11.85-.08A4.32,4.32,0,0,0,188.72,400Z" style="fill:#263238"></path><path d="M204.8,300.74c6.08-51.5,4.21-80.1,4.21-80.1l-38.35-2s.75,47.76,7.17,83.55c.75,18.93,3.51,51.1,5.49,72.71A92.15,92.15,0,0,0,202,373.29C205.37,354.83,208.43,327.93,204.8,300.74Z" style="fill:#90CAF9"></path><path d="M198.14,397.76s1.5-9.8,2.51-24.61c-4.37,1.66-10.71-2.27-16.38-1.6,2.18,12.94,4.39,26.25,4.39,26.25A13.87,13.87,0,0,0,198.14,397.76Z" style="fill:#7f3e3b"></path><path d="M182.07,370c.19,1.81.73,6.33,1.52,8a.71.71,0,0,0,.48.38c7,1.51,14.29.68,17.34-.35a.66.66,0,0,0,.39-.34c1-2.06,1.66-6.54,1.91-8.43a.67.67,0,0,0-.74-.76,171.64,171.64,0,0,1-20.2.79A.68.68,0,0,0,182.07,370Z" style="fill:#263238"></path><path d="M207.74,270.29c-3.18-10.88-6.88-20-7.83-28-5.21,21-4.89,40.91,5.14,56.17C206.25,288.11,207.12,278.7,207.74,270.29Z" style="opacity:0.2"></path><path d="M240.5,411.25c5.92-2.11,15.29-3.82,11.44-14-1.23-3.25,8.94-4.53,8.94-4.53,1.19,10.35,3.18,12.59,4.67,15.13,1.86,3.18,2.88,7.72-.89,7.72-5.26,0-4.37-.52-7.61-.49-3.79,0-7.09.49-14.61.49C238.32,415.53,238.6,411.93,240.5,411.25Z" style="fill:#263238"></path><path d="M250.72,401.92a5.07,5.07,0,0,1-2.63-.76c-.87-.52-1-1-1-1.38s.55-.9,1.32-1.11a5.24,5.24,0,0,1,5.26,1.8.36.36,0,0,1,.08.28.37.37,0,0,1-.15.25A5.16,5.16,0,0,1,250.72,401.92Zm-1.13-2.63a4,4,0,0,0-.93.11c-.5.14-.75.35-.77.49s.13.35.59.62a4.28,4.28,0,0,0,4.37.11A4.52,4.52,0,0,0,249.59,399.29Z" style="fill:#263238"></path><path d="M249.18,404.67a1.19,1.19,0,0,1-1.05-.46,1.58,1.58,0,0,1,.24-1.71,5.26,5.26,0,0,1,5.12-2.17.35.35,0,0,1,.25.16.39.39,0,0,1,.06.28,5.16,5.16,0,0,1-4,3.84A3.26,3.26,0,0,1,249.18,404.67Zm3.46-3.66a4.6,4.6,0,0,0-3.63,1.91c-.28.43-.33.75-.25.87s.33.17.85.07a4.34,4.34,0,0,0,3.33-2.84Z" style="fill:#263238"></path><path d="M242.28,300.74c-8.54-51.5-27.8-85.37-27.8-85.37l-29.66,3.22s14.31,47.76,30.89,83.55c6.12,18.93,18,51.1,26.13,72.71a85.79,85.79,0,0,0,18.2-1.56C258.21,354.83,253.63,327.93,242.28,300.74Z" style="fill:#90CAF9"></path><path d="M170.49,227.05c5.29,2,39.89.64,48.42-3.51a.65.65,0,0,0,.43-.6,9.08,9.08,0,0,0-.47-3.13.66.66,0,0,0-.76-.46c-3,.46-19.13,5.51-47.4,3.31a.68.68,0,0,0-.72.66c-.06,1-.05,2.31,0,3.06A.68.68,0,0,0,170.49,227.05Z" style="fill:#fff"></path><path d="M199.32,228c.3-.79-.39-6.65-.38-6.65l2.38,0s1.05,4.87.8,6.3A13,13,0,0,1,199.32,228Z" style="fill:#90CAF9"></path><path d="M179.12,228.2c-.58-1.94-.18-6.08-.19-6.08l-2.12-.1s-.55,4.77-.16,6A4.36,4.36,0,0,0,179.12,228.2Z" style="fill:#90CAF9"></path><path d="M261.62,397.76s-.76-9.8-3.16-24.61c-4,1.66-11.22-2.27-16.74-1.6,5.16,12.94,10.43,26.25,10.43,26.25C254.27,398.73,259.18,399.05,261.62,397.76Z" style="fill:#7f3e3b"></path><path d="M239.22,370c.7,1.81,2.52,6.33,3.77,8a1.08,1.08,0,0,0,.59.38c7.47,1.51,14.48.68,17.25-.35a.44.44,0,0,0,.28-.34c.4-2.06-.19-6.54-.47-8.43a.94.94,0,0,0-1-.76,165.28,165.28,0,0,1-20,.79A.5.5,0,0,0,239.22,370Z" style="fill:#263238"></path><path d="M167.27,172.17c.45,9-5.58,15.4,2.16,20.35-2.06,6.63-1.45,20.37,1.23,26.07,4.28,2.93,25.6,3.87,45.52-1.5.54-7.77-4.25-23.68.15-48.88a10,10,0,0,0-9.16-11.68c-1.59-.1-3.26-.18-5-.21a126.69,126.69,0,0,0-17.93.59c-1.93.24-3.92.55-5.82.89A13.7,13.7,0,0,0,167.27,172.17Z" style="fill:#fff"></path><path d="M185.75,189.36a67.5,67.5,0,0,0,16.79,2.82S192.63,195.91,185.75,189.36Z" style="fill:#ebebeb"></path><path d="M179.05,157.69c-6.51,11.79-7.09,54.64-1.63,89.82-6.76-7.41-9.75-10-11.44-15.94-2.19-7.67-4.81-35.15-3.84-49.86s3.48-27,8.52-25.93S179.05,157.69,179.05,157.69Z" style="fill:#263238"></path><path d="M172,156.07c-3.66-1.7-15.57-8.26-18.77-13.22,2.16-1.2,4.4-11,3.44-12.89,1.12-.62,1.84-2.83,1.2-3.32s-12.07-.63-17,4.56-10.39,19.41-6,25.56,25.12,22.79,27.11,29.19C167.27,172.17,172,156.07,172,156.07Z" style="fill:#263238"></path><path d="M239.32,128.25l1.25-4.15a8.17,8.17,0,0,0,.13-4.22l-.35-1.47a3.1,3.1,0,0,0-3.12-2.39l-3.73.13a3.1,3.1,0,0,0-3,3.18l0,1.66s-.61,6.39,2,10.65l1.4-.14A7,7,0,0,0,239.32,128.25Z" style="fill:#7f3e3b"></path><path d="M215.24,159.84H216l.86,0,1.75-.06c1.18-.06,2.36-.12,3.53-.23a53.22,53.22,0,0,0,6.77-1,28,28,0,0,0,3.1-.86,19.08,19.08,0,0,0,2.74-1.09,11.46,11.46,0,0,0,3.84-2.82l-.92,2.21c0,.07.09,0,.09-.41a3.2,3.2,0,0,0,0-.55,5,5,0,0,0,0-.66,27.65,27.65,0,0,0-.39-3.12c-.42-2.23-1-4.58-1.58-6.94s-1.29-4.75-2-7.15l-2.07-7.22,0-.05a3.55,3.55,0,0,1,6.35-3c1.51,2.21,2.83,4.43,4.12,6.72s2.48,4.62,3.61,7a71.23,71.23,0,0,1,3,7.6,39,39,0,0,1,1.15,4.34c.08.39.16.79.22,1.23s.11.86.13,1.35a14.08,14.08,0,0,1-.15,3.39,4.92,4.92,0,0,1-.67,1.82l-.24.4a22.88,22.88,0,0,1-7.94,7.61,36.16,36.16,0,0,1-8.95,3.73,53.82,53.82,0,0,1-8.86,1.65c-1.47.14-2.93.26-4.4.29-.73,0-1.47,0-2.21,0l-1.13,0-1.25,0a7.08,7.08,0,0,1,.28-14.15Z" style="fill:#7f3e3b"></path><path d="M186.26,168.09a11.56,11.56,0,0,1,10.29,3.47c8.88-5,7.89-14.21,7.44-15.14C195.51,158.19,186.26,168.09,186.26,168.09Z" style="fill:#90CAF9"></path><path d="M186.26,168.09s-4.88-.83-6.82,3.47c-1.49-7.45,3.71-12.95,6-13.7C184.57,159.79,186.26,168.09,186.26,168.09Z" style="fill:#90CAF9"></path><path d="M203,136.23c-1,5.87-1.69,15.36,1,20.19a83.36,83.36,0,0,1-17.73,11.67c-2.45-6.79-.81-10.23-.81-10.23,4.43-1.39,4.73-6.94,4.41-11.22Z" style="fill:#7f3e3b"></path><path d="M189.86,146.64l7.49-5.92a7,7,0,0,1-.44,3.56,15,15,0,0,1-7.13,7.41A24.42,24.42,0,0,0,189.86,146.64Z" style="opacity:0.2"></path><path d="M205.67,127c-1.55,9.53-2,13.59-7.25,18-7.89,6.68-19,2.7-20.3-7.09-1.15-8.82,1.57-22.92,11.16-25.8S207.21,117.48,205.67,127Z" style="fill:#7f3e3b"></path><path d="M192.61,136.48c-1.16,2.52-5.14,2.48-6.06,1.2C185.28,135.9,193.62,134.26,192.61,136.48Z" style="fill:#263238"></path><path d="M192.07,136.17a1,1,0,0,0,.25-.54c-1.08-.56-4.28,0-5.46,1,.42.68.64.76.81.79a1.72,1.72,0,0,0-.45.8c1.42.68,4.2.41,5.27-1.49A.77.77,0,0,0,192.07,136.17Z" style="fill:#fff"></path><path d="M202.06,122.51c-2.34,4.53-3.93,9.07,1.16,12.72C207.54,129.89,207.4,124.1,202.06,122.51Z" style="fill:#263238"></path><path d="M191.7,128.81c-.08.78-.56,1.37-1.07,1.32s-.86-.73-.78-1.51.56-1.37,1.07-1.32S191.78,128,191.7,128.81Z" style="fill:#263238"></path><path d="M182.08,128c-.08.78-.55,1.38-1.06,1.32s-.86-.72-.78-1.5.55-1.37,1.06-1.32S182.16,127.19,182.08,128Z" style="fill:#263238"></path><path d="M181.52,126.53l-1.82-.73S180.52,127.36,181.52,126.53Z" style="fill:#263238"></path><path d="M184.43,128.43a20.65,20.65,0,0,1-3.29,4.7,3.36,3.36,0,0,0,2.73.8Z" style="fill:#630f0f"></path><path d="M206.78,136.34a7.29,7.29,0,0,1-5,3.24c-2.59.3-3.39-2.62-2.26-5.27,1-2.39,3.61-5.42,6-4.49S208.31,134.08,206.78,136.34Z" style="fill:#7f3e3b"></path><path d="M200.43,112.38c-9.56,8.59,9.2,21.6,6.27,32.6C213,129.69,208.49,108.69,200.43,112.38Z" style="fill:#263238"></path><path d="M205,112.57c-6.3,15.27-24.3-.56-27.05,11.52C176.19,114.56,193.07,102.13,205,112.57Z" style="fill:#263238"></path><path d="M188.92,124.41a.45.45,0,0,1,.36-.07,3.69,3.69,0,0,0,3.24-.74.46.46,0,0,1,.65,0,.47.47,0,0,1,0,.66,4.6,4.6,0,0,1-4.09,1,.45.45,0,0,1-.35-.55A.47.47,0,0,1,188.92,124.41Z" style="fill:#263238"></path><path d="M182.56,124.74a.45.45,0,0,1,0,.34.45.45,0,0,1-.62.2,4.58,4.58,0,0,1-2.56-3.34.48.48,0,0,1,.41-.51.46.46,0,0,1,.51.41,3.66,3.66,0,0,0,2.05,2.62A.43.43,0,0,1,182.56,124.74Z" style="fill:#263238"></path><path d="M191.14,127.37l-1.82-.73S190.13,128.2,191.14,127.37Z" style="fill:#263238"></path><path d="M207.74,155.78c8.23.74,21.55,3.54,28-2-1.82-4.16-3.34-7.44-2.08-10.06-2-2.46-1.66-4.53-.94-5.13,2.64-1.76,17,6.14,20.55,9.26s1.47,20.73-2.4,27.51-33.17,19.3-33.17,19.3Z" style="fill:#263238"></path><path d="M207.74,155.78c-5.3,10.45-1.1,77.92,8.6,89.65,1-3.2,8.29-14.07,7.8-19.19-1-10.62-6.48-37.63-5.81-61.72C218.48,159,213.81,156.52,207.74,155.78Z" style="fill:#263238"></path></g><g id="freepik--chat-bubble--inject-119"><path d="M218.46,105.69l1.36-1.14a24.39,24.39,0,0,0,6.66-8.82,19.65,19.65,0,0,1-10.77-17.12,19.55,19.55,0,0,1,19.21-19.77l68.26-1A19.55,19.55,0,0,1,323,77.08h0a19.55,19.55,0,0,1-19.22,19.77l-66.44,1a34.68,34.68,0,0,1-17.07,7.63Zm85-46.82h-.27l-68.25,1a18.56,18.56,0,0,0-18.23,18.75A18.64,18.64,0,0,0,227.34,95l.43.21-.18.44a25.52,25.52,0,0,1-5.81,8.47,33.86,33.86,0,0,0,15-7.23l.14-.12,66.81-1A18.56,18.56,0,0,0,322,77.1h0a18.54,18.54,0,0,0-18.49-18.23Z" style="fill:#90CAF9"></path><path d="M306.91,93.43l-68,5.59a19.07,19.07,0,0,1-20.49-17.38h0a19.05,19.05,0,0,1,17.38-20.48l68-5.59A19.05,19.05,0,0,1,324.29,73h0A19.05,19.05,0,0,1,306.91,93.43Z" style="fill:#90CAF9"></path><path d="M234.74,80.84l.24-2-1.9.16-.18-2.15,2.33-.19.33-2.84,2.22-.18-.34,2.83,1.71-.14.33-2.83,2.21-.18-.33,2.83,1.08-.09.18,2.15-1.51.13-.23,2,1.9-.16.18,2.15-2.34.19-.32,2.79-2.21.18.32-2.78-1.72.14-.33,2.78-2.2.18.33-2.78-1.07.09L233.24,81Zm2.21-.18,1.71-.14.24-2-1.71.14Z" style="fill:#fff"></path><path d="M255.1,75.11l-2.86.7a3,3,0,0,0-.46-.74,1.83,1.83,0,0,0-.61-.38l.18,2.25A8.54,8.54,0,0,1,254.63,78a3.1,3.1,0,0,1,1.24,2.31,3.14,3.14,0,0,1-.25,1.59,3.76,3.76,0,0,1-.86,1.26,4,4,0,0,1-1.2.8,6.17,6.17,0,0,1-1.6.38l.12,1.47-1.13.1-.12-1.47a7.42,7.42,0,0,1-1.89-.22,3.9,3.9,0,0,1-1.29-.64,3.64,3.64,0,0,1-.89-1,5.09,5.09,0,0,1-.53-1.3l3.12-.62a2.91,2.91,0,0,0,.47,1.08,2,2,0,0,0,.83.55l-.22-2.76a13.92,13.92,0,0,1-2.3-.57,3,3,0,0,1-1.22-.93,3,3,0,0,1-.63-1.68,3.16,3.16,0,0,1,.78-2.4,4.4,4.4,0,0,1,2.8-1.27L249.8,72l1.14-.09.06.77a4.83,4.83,0,0,1,2.74.61A3.27,3.27,0,0,1,255.1,75.11ZM250,74.74a1.48,1.48,0,0,0-.66.47.84.84,0,0,0-.15.58,1,1,0,0,0,.25.59,1.47,1.47,0,0,0,.72.36Zm1.77,7.58a1.77,1.77,0,0,0,.93-.57A1.13,1.13,0,0,0,253,81a1,1,0,0,0-.32-.66,2.43,2.43,0,0,0-1.06-.49Z" style="fill:#fff"></path><path d="M259.18,74.89a3.38,3.38,0,0,1,.22-1.54,2.5,2.5,0,0,1,1-1.19,3.5,3.5,0,0,1,1.65-.52,3.08,3.08,0,0,1,2.33.63,3.33,3.33,0,0,1,.36,4.37,3.06,3.06,0,0,1-2.19,1,3.42,3.42,0,0,1-1.72-.24,2.43,2.43,0,0,1-1.15-1A3.39,3.39,0,0,1,259.18,74.89Zm2.19-.16a2.43,2.43,0,0,0,.42,1.37A.75.75,0,0,0,263,76a2.54,2.54,0,0,0,.2-1.43,2.58,2.58,0,0,0-.43-1.38.76.76,0,0,0-1.18.1A2.45,2.45,0,0,0,261.37,74.73Zm7.26-3.63,1.64-.14L264.68,83.7l-1.63.14Zm-.71,9.29a3.36,3.36,0,0,1,.22-1.54,2.48,2.48,0,0,1,1-1.19,3.58,3.58,0,0,1,1.65-.53,3.1,3.1,0,0,1,2.34.64,3.33,3.33,0,0,1,.36,4.37,3.11,3.11,0,0,1-2.2,1,3.42,3.42,0,0,1-1.72-.26,2.46,2.46,0,0,1-1.15-1A3.51,3.51,0,0,1,267.92,80.39Zm2.19-.16a2.5,2.5,0,0,0,.42,1.38.69.69,0,0,0,.61.23.68.68,0,0,0,.57-.33,2.52,2.52,0,0,0,.2-1.43,2.58,2.58,0,0,0-.43-1.38.76.76,0,0,0-1.18.1A2.46,2.46,0,0,0,270.11,80.23Z" style="fill:#fff"></path><path d="M277.49,70.57l3.38-.28.22,2.6-.23,5.28-2.09.17-1.07-5.17Zm.82,8.61,3.16-.26.23,2.8-3.16.26Z" style="fill:#fff"></path><path d="M286.75,76.57l.23-2-1.9.16-.18-2.15,2.34-.19.33-2.84,2.21-.18-.33,2.84,1.71-.14.33-2.84L293.7,69l-.33,2.83,1.08-.08.17,2.15-1.51.12-.23,2,1.9-.16.18,2.15-2.33.19L292.3,81l-2.21.18.32-2.78-1.71.14-.33,2.78-2.2.19.32-2.79-1.07.09-.18-2.15Zm2.2-.18,1.72-.14.23-2-1.71.14Z" style="fill:#fff"></path><path d="M306.36,70.7l-.47,6.23a1.45,1.45,0,0,0,0,.28.34.34,0,0,0,.09.21.36.36,0,0,0,.24.06,1.43,1.43,0,0,0,.78-.39,3.49,3.49,0,0,0,1-1.44,4.81,4.81,0,0,0,.26-2.17,4.43,4.43,0,0,0-1.45-3.15,4.26,4.26,0,0,0-3.26-.93,5.29,5.29,0,0,0-2.61.92,4.65,4.65,0,0,0-1.68,2.18,6.64,6.64,0,0,0-.41,3,5.53,5.53,0,0,0,1.74,3.86,4.83,4.83,0,0,0,3.77,1.16,6.32,6.32,0,0,0,2.07-.53,7.05,7.05,0,0,0,1.84-1.25l1.6-.14a6.77,6.77,0,0,1-3,2.48,7.36,7.36,0,0,1-2.39.59,6.42,6.42,0,0,1-3.3-.56,5.82,5.82,0,0,1-2.43-2.19,7.29,7.29,0,0,1-1.08-3.33,7.49,7.49,0,0,1,.54-3.61,5.91,5.91,0,0,1,5.24-3.74,5.41,5.41,0,0,1,4.12,1.23,5.47,5.47,0,0,1,1.87,3.9,6,6,0,0,1-.38,2.72,4.6,4.6,0,0,1-1.6,2.07,3.3,3.3,0,0,1-1.64.68,1.22,1.22,0,0,1-.78-.15,1.28,1.28,0,0,1-.49-.66,3.62,3.62,0,0,1-.9.79,2,2,0,0,1-.91.28,2.29,2.29,0,0,1-1.85-.71,3.69,3.69,0,0,1-.95-2.42,6.47,6.47,0,0,1,.67-3.52,2.81,2.81,0,0,1,2.25-1.74,1.83,1.83,0,0,1,1,.18,2.94,2.94,0,0,1,.93.82l.07-.89Zm-4.77,5.52a2.33,2.33,0,0,0,.51,1.41,1,1,0,0,0,.79.32,1.27,1.27,0,0,0,.87-.5,4.14,4.14,0,0,0,.57-1.75,9.83,9.83,0,0,0,.11-2.31,1.75,1.75,0,0,0-.42-1.12,1,1,0,0,0-.81-.33,1.27,1.27,0,0,0-.87.47,3.44,3.44,0,0,0-.66,1.72A8.89,8.89,0,0,0,301.59,76.22Z" style="fill:#fff"></path><path d="M231.35,93.9a23.85,23.85,0,0,1-7.25,13.75,33.71,33.71,0,0,0,17.76-10.2Z" style="fill:#90CAF9"></path></g></svg>