<svg xmlns="http://www.w3.org/2000/svg" width="128" height="128" xml:space="preserve"><path fill="#282D33" d="m17.43 111.625 5.806-21.712 2.492-2.532 2.851 2.805-1.751 1.78-3.725 13.929 13.596-3.782 1.745-1.776 2.853 2.805-2.495 2.538zM82.514 61.215l-2.854-2.802 29.133-29.678-9.984-10.172-29.08 29.627-2.855-2.802 31.935-32.535 15.589 15.882z"/><path fill="#282D33" d="M39.397 105.147 23.81 89.264l52.011-52.989 2.856 2.802-49.263 50.187 9.983 10.173 49.211-50.136 2.856 2.802zM118.519 23.863l-2.855-2.801 4.596-4.684-9.318-9.494-4.544 4.63-2.855-2.802 4.885-4.977a3.34 3.34 0 0 1 2.408-.994h.003c1.043 0 2.088.455 2.867 1.249l9.454 9.631c1.521 1.547 1.627 3.861.24 5.267l-4.881 4.975z"/><g><path fill="#282D33" d="M126.855 128H1.145V0h90.397v4H5.145v120h117.71V35.941h4z"/></g></svg>