<svg xmlns="http://www.w3.org/2000/svg" viewBox="0 0 64 64" xml:space="preserve" style="fill-rule:evenodd;clip-rule:evenodd;stroke-linecap:round;stroke-linejoin:round;stroke-miterlimit:2"><path d="M41 15v-3.215A3.786 3.786 0 0 0 37.215 8h-10.43A3.786 3.786 0 0 0 23 11.785V15" style="fill:none;stroke:#222a33;stroke-width:1.5px"/><path d="M56 16.778c0-.982-.796-1.778-1.778-1.778H9.778C8.796 15 8 15.796 8 16.778v1.444C8 19.204 8.796 20 9.778 20h44.444c.982 0 1.778-.796 1.778-1.778v-1.444zM14 20l2.281 32.845A3.39 3.39 0 0 0 19.662 56h24.676a3.39 3.39 0 0 0 3.381-3.155L49.653 25" style="fill:none;stroke:#222a33;stroke-width:1.5px"/><path d="m38.902 36.3 2.006 3.475a2.155 2.155 0 0 1-1.866 3.232H32M28.501 43.007h-3.543a2.156 2.156 0 0 1-1.866-3.232l3.521-6.099M28.296 30.76l1.838-3.183a2.156 2.156 0 0 1 3.732 0l3.521 6.099" style="fill:none;stroke:#222a33;stroke-width:1.5px"/><path d="m33.166 41.257-1.749 1.75 1.749 1.75M27.253 36.066l-.64-2.39-2.39.641M38.028 31.286l-.641 2.39-2.39-.64M17 20l1 12M18.417 37l.166 2" style="fill:none;stroke:#222a33;stroke-width:1.5px"/></svg>